<svg width="589" height="442" viewBox="0 0 589 442" fill="none" xmlns="http://www.w3.org/2000/svg">
<path d="M407.44 25.0103H180.983L68.6646 221.455L181.893 417.444H408.35L520.214 221.455L407.44 25.0103Z" stroke="white" stroke-opacity="0.5"/>
<path d="M342.5 146L230.5 121L206.5 221.444L268 266.5H324.5L375 221.444L342.5 146Z" fill="#F2B705"/>
<path d="M181.438 25.465L408.35 417.444" stroke="white" stroke-opacity="0.23"/>
<path d="M407.441 25.0103L181.893 417.444" stroke="white" stroke-opacity="0.23"/>
<path d="M69.1191 221.455H519.759" stroke="white" stroke-opacity="0.23"/>
<path d="M150.932 12.2959C149.485 11.8799 148.43 11.3701 147.768 10.7666C147.112 10.1572 146.784 9.40723 146.784 8.5166C146.784 7.50879 147.185 6.67676 147.988 6.02051C148.796 5.3584 149.845 5.02734 151.134 5.02734C152.013 5.02734 152.795 5.19727 153.481 5.53711C154.172 5.87695 154.706 6.3457 155.081 6.94336C155.461 7.54102 155.652 8.19434 155.652 8.90332H153.956C153.956 8.12988 153.709 7.52344 153.217 7.08398C152.725 6.63867 152.031 6.41602 151.134 6.41602C150.302 6.41602 149.652 6.60059 149.183 6.96973C148.72 7.33301 148.489 7.83984 148.489 8.49023C148.489 9.01172 148.708 9.4541 149.148 9.81738C149.593 10.1748 150.346 10.5029 151.407 10.8018C152.473 11.1006 153.305 11.4316 153.903 11.7949C154.506 12.1523 154.952 12.5713 155.239 13.0518C155.532 13.5322 155.678 14.0977 155.678 14.748C155.678 15.7852 155.274 16.6172 154.465 17.2441C153.657 17.8652 152.576 18.1758 151.222 18.1758C150.343 18.1758 149.523 18.0088 148.761 17.6748C147.999 17.335 147.411 16.8721 146.995 16.2861C146.584 15.7002 146.379 15.0352 146.379 14.291H148.076C148.076 15.0645 148.36 15.6768 148.928 16.1279C149.502 16.5732 150.267 16.7959 151.222 16.7959C152.113 16.7959 152.795 16.6143 153.27 16.251C153.745 15.8877 153.982 15.3926 153.982 14.7656C153.982 14.1387 153.762 13.6553 153.323 13.3154C152.883 12.9697 152.086 12.6299 150.932 12.2959ZM159.8 6.1875V8.49023H161.576V9.74707H159.8V15.6445C159.8 16.0254 159.879 16.3125 160.038 16.5059C160.196 16.6934 160.465 16.7871 160.846 16.7871C161.034 16.7871 161.291 16.752 161.62 16.6816V18C161.192 18.1172 160.776 18.1758 160.372 18.1758C159.645 18.1758 159.097 17.9561 158.728 17.5166C158.359 17.0771 158.174 16.4531 158.174 15.6445V9.74707H156.443V8.49023H158.174V6.1875H159.8ZM168.08 9.94922C167.833 9.9082 167.567 9.8877 167.28 9.8877C166.213 9.8877 165.49 10.3418 165.109 11.25V18H163.483V8.49023H165.065L165.091 9.58887C165.624 8.73926 166.38 8.31445 167.359 8.31445C167.675 8.31445 167.915 8.35547 168.08 8.4375V9.94922ZM173.353 18.1758C172.064 18.1758 171.015 17.7539 170.207 16.9102C169.398 16.0605 168.994 14.9268 168.994 13.5088V13.21C168.994 12.2666 169.172 11.4258 169.53 10.6875C169.893 9.94336 170.397 9.36328 171.041 8.94727C171.692 8.52539 172.395 8.31445 173.151 8.31445C174.387 8.31445 175.348 8.72168 176.034 9.53613C176.719 10.3506 177.062 11.5166 177.062 13.0342V13.7109H170.62C170.643 14.6484 170.915 15.4072 171.437 15.9873C171.964 16.5615 172.632 16.8486 173.441 16.8486C174.015 16.8486 174.501 16.7314 174.9 16.4971C175.298 16.2627 175.647 15.9521 175.946 15.5654L176.939 16.3389C176.142 17.5635 174.947 18.1758 173.353 18.1758ZM173.151 9.65039C172.495 9.65039 171.944 9.89062 171.498 10.3711C171.053 10.8457 170.778 11.5137 170.672 12.375H175.436V12.252C175.389 11.4258 175.166 10.7871 174.768 10.3359C174.37 9.87891 173.831 9.65039 173.151 9.65039ZM180.49 8.49023L180.542 9.68555C181.269 8.77148 182.218 8.31445 183.39 8.31445C185.4 8.31445 186.414 9.44824 186.431 11.7158V18H184.805V11.707C184.799 11.0215 184.641 10.5146 184.331 10.1865C184.026 9.8584 183.548 9.69434 182.898 9.69434C182.371 9.69434 181.908 9.83496 181.509 10.1162C181.111 10.3975 180.8 10.7666 180.578 11.2236V18H178.952V8.49023H180.49ZM188.497 13.166C188.497 11.6836 188.839 10.5059 189.525 9.63281C190.21 8.75391 191.119 8.31445 192.249 8.31445C193.41 8.31445 194.315 8.72461 194.965 9.54492L195.044 8.49023H196.53V17.7715C196.53 19.002 196.164 19.9717 195.431 20.6807C194.705 21.3896 193.726 21.7441 192.496 21.7441C191.81 21.7441 191.139 21.5977 190.483 21.3047C189.827 21.0117 189.326 20.6104 188.98 20.1006L189.824 19.125C190.521 19.9863 191.373 20.417 192.381 20.417C193.172 20.417 193.788 20.1943 194.227 19.749C194.672 19.3037 194.895 18.6768 194.895 17.8682V17.0508C194.245 17.8008 193.357 18.1758 192.232 18.1758C191.119 18.1758 190.216 17.7275 189.525 16.8311C188.839 15.9346 188.497 14.7129 188.497 13.166ZM190.131 13.3506C190.131 14.4229 190.351 15.2666 190.79 15.8818C191.23 16.4912 191.845 16.7959 192.636 16.7959C193.662 16.7959 194.415 16.3301 194.895 15.3984V11.0566C194.397 10.1484 193.65 9.69434 192.654 9.69434C191.863 9.69434 191.245 10.002 190.799 10.6172C190.354 11.2324 190.131 12.1436 190.131 13.3506ZM201.197 6.1875V8.49023H202.972V9.74707H201.197V15.6445C201.197 16.0254 201.276 16.3125 201.434 16.5059C201.592 16.6934 201.862 16.7871 202.243 16.7871C202.43 16.7871 202.688 16.752 203.016 16.6816V18C202.588 18.1172 202.172 18.1758 201.768 18.1758C201.041 18.1758 200.494 17.9561 200.124 17.5166C199.755 17.0771 199.571 16.4531 199.571 15.6445V9.74707H197.839V8.49023H199.571V6.1875H201.197ZM206.505 9.6416C207.226 8.75684 208.164 8.31445 209.318 8.31445C211.328 8.31445 212.341 9.44824 212.359 11.7158V18H210.733V11.707C210.727 11.0215 210.569 10.5146 210.258 10.1865C209.954 9.8584 209.476 9.69434 208.826 9.69434C208.298 9.69434 207.835 9.83496 207.437 10.1162C207.039 10.3975 206.728 10.7666 206.505 11.2236V18H204.879V4.5H206.505V9.6416Z" fill="white"/>
<path d="M383.663 13.2053C382.215 12.7893 381.161 12.2795 380.498 11.676C379.842 11.0667 379.514 10.3167 379.514 9.42603C379.514 8.41821 379.915 7.58618 380.718 6.92993C381.527 6.26782 382.576 5.93677 383.865 5.93677C384.744 5.93677 385.526 6.10669 386.211 6.44653C386.903 6.78638 387.436 7.25513 387.811 7.85278C388.192 8.45044 388.382 9.10376 388.382 9.81274H386.686C386.686 9.03931 386.44 8.43286 385.948 7.99341C385.456 7.5481 384.761 7.32544 383.865 7.32544C383.033 7.32544 382.382 7.51001 381.914 7.87915C381.451 8.24243 381.219 8.74927 381.219 9.39966C381.219 9.92114 381.439 10.3635 381.878 10.7268C382.324 11.0842 383.077 11.4124 384.137 11.7112C385.204 12.01 386.036 12.3411 386.633 12.7043C387.237 13.0618 387.682 13.4807 387.969 13.9612C388.262 14.4417 388.409 15.0071 388.409 15.6575C388.409 16.6946 388.004 17.5266 387.196 18.1536C386.387 18.7747 385.306 19.0852 383.953 19.0852C383.074 19.0852 382.253 18.9182 381.492 18.5842C380.73 18.2444 380.141 17.7815 379.725 17.1956C379.315 16.6096 379.11 15.9446 379.11 15.2004H380.806C380.806 15.9739 381.09 16.5862 381.659 17.0374C382.233 17.4827 382.998 17.7053 383.953 17.7053C384.843 17.7053 385.526 17.5237 386 17.1604C386.475 16.7971 386.712 16.302 386.712 15.675C386.712 15.0481 386.493 14.5647 386.053 14.2249C385.614 13.8792 384.817 13.5393 383.663 13.2053ZM392.531 7.09692V9.39966H394.306V10.6565H392.531V16.554C392.531 16.9348 392.61 17.2219 392.768 17.4153C392.926 17.6028 393.196 17.6965 393.577 17.6965C393.764 17.6965 394.022 17.6614 394.35 17.5911V18.9094C393.922 19.0266 393.506 19.0852 393.102 19.0852C392.375 19.0852 391.828 18.8655 391.458 18.426C391.089 17.9866 390.905 17.3625 390.905 16.554V10.6565H389.173V9.39966H390.905V7.09692H392.531ZM402.084 18.9094C401.991 18.7219 401.915 18.3879 401.856 17.9075C401.1 18.6926 400.198 19.0852 399.149 19.0852C398.211 19.0852 397.441 18.8215 396.837 18.2942C396.24 17.761 395.941 17.0872 395.941 16.2727C395.941 15.2825 396.316 14.5149 397.066 13.97C397.822 13.4192 398.882 13.1438 400.248 13.1438H401.83V12.3967C401.83 11.8284 401.66 11.3772 401.32 11.0432C400.98 10.7034 400.479 10.5334 399.817 10.5334C399.237 10.5334 398.75 10.6799 398.358 10.9729C397.965 11.2659 397.769 11.6204 397.769 12.0364H396.134C396.134 11.5618 396.301 11.1047 396.635 10.6653C396.975 10.22 397.432 9.86841 398.006 9.6106C398.586 9.35278 399.222 9.22388 399.914 9.22388C401.009 9.22388 401.868 9.49927 402.489 10.05C403.11 10.595 403.432 11.3479 403.456 12.3088V16.6858C403.456 17.5588 403.567 18.2532 403.79 18.7688V18.9094H402.084ZM399.386 17.6702C399.896 17.6702 400.379 17.5383 400.836 17.2747C401.293 17.011 401.624 16.6682 401.83 16.2463V14.2952H400.555C398.563 14.2952 397.567 14.8782 397.567 16.0442C397.567 16.554 397.737 16.9524 398.077 17.2395C398.416 17.5266 398.853 17.6702 399.386 17.6702ZM407.534 9.39966L407.578 10.4543C408.275 9.63403 409.215 9.22388 410.399 9.22388C411.729 9.22388 412.634 9.73364 413.115 10.7532C413.431 10.2961 413.841 9.927 414.345 9.64575C414.855 9.3645 415.456 9.22388 416.147 9.22388C418.233 9.22388 419.293 10.3284 419.329 12.5374V18.9094H417.703V12.634C417.703 11.9543 417.547 11.4475 417.237 11.1135C416.926 10.7737 416.405 10.6038 415.672 10.6038C415.069 10.6038 414.568 10.7854 414.169 11.1487C413.771 11.5061 413.54 11.9895 413.475 12.5989V18.9094H411.84V12.678C411.84 11.2952 411.164 10.6038 409.81 10.6038C408.744 10.6038 408.014 11.0579 407.622 11.9661V18.9094H405.996V9.39966H407.534ZM423.556 18.9094H421.93V9.39966H423.556V18.9094ZM421.798 6.8772C421.798 6.61353 421.877 6.39087 422.036 6.20923C422.2 6.02759 422.44 5.93677 422.756 5.93677C423.073 5.93677 423.313 6.02759 423.477 6.20923C423.641 6.39087 423.723 6.61353 423.723 6.8772C423.723 7.14087 423.641 7.3606 423.477 7.53638C423.313 7.71216 423.073 7.80005 422.756 7.80005C422.44 7.80005 422.2 7.71216 422.036 7.53638C421.877 7.3606 421.798 7.14087 421.798 6.8772ZM427.705 9.39966L427.757 10.595C428.484 9.68091 429.433 9.22388 430.605 9.22388C432.615 9.22388 433.628 10.3577 433.646 12.6252V18.9094H432.02V12.6165C432.014 11.9309 431.856 11.4241 431.545 11.0959C431.241 10.7678 430.763 10.6038 430.113 10.6038C429.585 10.6038 429.123 10.7444 428.724 11.0256C428.326 11.3069 428.015 11.676 427.792 12.1331V18.9094H426.166V9.39966H427.705ZM441.969 18.9094C441.875 18.7219 441.799 18.3879 441.741 17.9075C440.985 18.6926 440.082 19.0852 439.034 19.0852C438.096 19.0852 437.326 18.8215 436.722 18.2942C436.124 17.761 435.826 17.0872 435.826 16.2727C435.826 15.2825 436.201 14.5149 436.951 13.97C437.707 13.4192 438.767 13.1438 440.132 13.1438H441.714V12.3967C441.714 11.8284 441.544 11.3772 441.205 11.0432C440.865 10.7034 440.364 10.5334 439.702 10.5334C439.122 10.5334 438.635 10.6799 438.243 10.9729C437.85 11.2659 437.654 11.6204 437.654 12.0364H436.019C436.019 11.5618 436.186 11.1047 436.52 10.6653C436.86 10.22 437.317 9.86841 437.891 9.6106C438.471 9.35278 439.107 9.22388 439.798 9.22388C440.894 9.22388 441.752 9.49927 442.373 10.05C442.995 10.595 443.317 11.3479 443.34 12.3088V16.6858C443.34 17.5588 443.452 18.2532 443.674 18.7688V18.9094H441.969ZM439.271 17.6702C439.781 17.6702 440.264 17.5383 440.721 17.2747C441.178 17.011 441.509 16.6682 441.714 16.2463V14.2952H440.44C438.448 14.2952 437.452 14.8782 437.452 16.0442C437.452 16.554 437.622 16.9524 437.961 17.2395C438.301 17.5266 438.738 17.6702 439.271 17.6702Z" fill="white"/>
<path d="M534.552 221.473C533.105 221.057 532.05 220.547 531.388 219.944C530.732 219.334 530.404 218.584 530.404 217.694C530.404 216.686 530.805 215.854 531.608 215.198C532.416 214.535 533.465 214.204 534.754 214.204C535.633 214.204 536.415 214.374 537.101 214.714C537.792 215.054 538.326 215.523 538.701 216.12C539.082 216.718 539.272 217.371 539.272 218.08H537.576C537.576 217.307 537.33 216.7 536.837 216.261C536.345 215.816 535.651 215.593 534.754 215.593C533.922 215.593 533.272 215.778 532.803 216.147C532.34 216.51 532.109 217.017 532.109 217.667C532.109 218.189 532.329 218.631 532.768 218.994C533.213 219.352 533.966 219.68 535.027 219.979C536.093 220.278 536.925 220.609 537.523 220.972C538.126 221.329 538.572 221.748 538.859 222.229C539.152 222.709 539.298 223.275 539.298 223.925C539.298 224.962 538.894 225.794 538.085 226.421C537.277 227.042 536.196 227.353 534.842 227.353C533.963 227.353 533.143 227.186 532.381 226.852C531.62 226.512 531.031 226.049 530.615 225.463C530.205 224.877 529.999 224.212 529.999 223.468H531.696C531.696 224.241 531.98 224.854 532.548 225.305C533.123 225.75 533.887 225.973 534.842 225.973C535.733 225.973 536.415 225.791 536.89 225.428C537.365 225.065 537.602 224.57 537.602 223.943C537.602 223.316 537.382 222.832 536.943 222.492C536.503 222.147 535.707 221.807 534.552 221.473ZM549.248 222.528C549.248 223.975 548.916 225.141 548.254 226.026C547.592 226.91 546.696 227.353 545.565 227.353C544.411 227.353 543.502 226.987 542.84 226.254V230.833H541.214V217.667H542.7L542.779 218.722C543.441 217.902 544.361 217.491 545.539 217.491C546.681 217.491 547.583 217.922 548.246 218.783C548.914 219.645 549.248 220.843 549.248 222.378V222.528ZM547.622 222.343C547.622 221.271 547.393 220.424 546.936 219.803C546.479 219.182 545.852 218.871 545.055 218.871C544.071 218.871 543.332 219.308 542.84 220.181V224.725C543.327 225.592 544.071 226.026 545.073 226.026C545.852 226.026 546.47 225.718 546.927 225.103C547.39 224.482 547.622 223.562 547.622 222.343ZM555.268 227.353C553.979 227.353 552.93 226.931 552.122 226.087C551.313 225.238 550.909 224.104 550.909 222.686V222.387C550.909 221.444 551.087 220.603 551.445 219.865C551.808 219.12 552.312 218.54 552.957 218.124C553.607 217.702 554.31 217.491 555.066 217.491C556.302 217.491 557.263 217.899 557.949 218.713C558.634 219.528 558.977 220.694 558.977 222.211V222.888H552.535C552.558 223.825 552.831 224.584 553.352 225.164C553.879 225.739 554.547 226.026 555.356 226.026C555.93 226.026 556.416 225.908 556.815 225.674C557.213 225.44 557.562 225.129 557.861 224.742L558.854 225.516C558.057 226.74 556.862 227.353 555.268 227.353ZM555.066 218.827C554.41 218.827 553.859 219.068 553.414 219.548C552.968 220.023 552.693 220.691 552.587 221.552H557.351V221.429C557.304 220.603 557.082 219.964 556.683 219.513C556.285 219.056 555.746 218.827 555.066 218.827ZM564.813 227.353C563.524 227.353 562.475 226.931 561.666 226.087C560.858 225.238 560.454 224.104 560.454 222.686V222.387C560.454 221.444 560.632 220.603 560.99 219.865C561.353 219.12 561.857 218.54 562.501 218.124C563.152 217.702 563.855 217.491 564.611 217.491C565.847 217.491 566.808 217.899 567.494 218.713C568.179 219.528 568.522 220.694 568.522 222.211V222.888H562.08C562.103 223.825 562.375 224.584 562.897 225.164C563.424 225.739 564.092 226.026 564.901 226.026C565.475 226.026 565.961 225.908 566.36 225.674C566.758 225.44 567.107 225.129 567.406 224.742L568.399 225.516C567.602 226.74 566.407 227.353 564.813 227.353ZM564.611 218.827C563.955 218.827 563.404 219.068 562.958 219.548C562.513 220.023 562.238 220.691 562.132 221.552H566.896V221.429C566.849 220.603 566.626 219.964 566.228 219.513C565.83 219.056 565.29 218.827 564.611 218.827ZM570.016 222.343C570.016 220.884 570.362 219.712 571.053 218.827C571.745 217.937 572.65 217.491 573.769 217.491C574.882 217.491 575.764 217.872 576.415 218.634V213.677H578.04V227.177H576.546L576.467 226.157C575.817 226.954 574.912 227.353 573.751 227.353C572.65 227.353 571.75 226.902 571.053 225.999C570.362 225.097 570.016 223.919 570.016 222.466V222.343ZM571.642 222.528C571.642 223.606 571.865 224.449 572.31 225.059C572.755 225.668 573.371 225.973 574.156 225.973C575.187 225.973 575.94 225.51 576.415 224.584V220.216C575.928 219.32 575.181 218.871 574.173 218.871C573.376 218.871 572.755 219.179 572.31 219.794C571.865 220.409 571.642 221.321 571.642 222.528Z" fill="white"/>
<path d="M379.602 435.444V422.648H383.214C384.328 422.648 385.312 422.894 386.167 423.386C387.023 423.878 387.682 424.578 388.145 425.486C388.614 426.395 388.851 427.438 388.857 428.615V429.433C388.857 430.64 388.623 431.697 388.154 432.606C387.691 433.514 387.026 434.211 386.159 434.697C385.297 435.184 384.292 435.433 383.144 435.444H379.602ZM381.29 424.036V434.065H383.065C384.366 434.065 385.376 433.66 386.097 432.852C386.824 432.043 387.187 430.892 387.187 429.398V428.651C387.187 427.197 386.844 426.069 386.159 425.267C385.479 424.458 384.512 424.048 383.258 424.036H381.29ZM397.031 435.444C396.937 435.257 396.861 434.923 396.802 434.443C396.046 435.228 395.144 435.62 394.095 435.62C393.158 435.62 392.387 435.357 391.784 434.829C391.186 434.296 390.887 433.622 390.887 432.808C390.887 431.818 391.262 431.05 392.012 430.505C392.768 429.954 393.829 429.679 395.194 429.679H396.776V428.932C396.776 428.363 396.606 427.912 396.266 427.578C395.926 427.238 395.425 427.068 394.763 427.068C394.183 427.068 393.697 427.215 393.304 427.508C392.912 427.801 392.715 428.155 392.715 428.571H391.081C391.081 428.097 391.248 427.64 391.582 427.2C391.921 426.755 392.378 426.403 392.953 426.146C393.533 425.888 394.168 425.759 394.86 425.759C395.956 425.759 396.814 426.034 397.435 426.585C398.056 427.13 398.378 427.883 398.402 428.844V433.221C398.402 434.094 398.513 434.788 398.736 435.304V435.444H397.031ZM394.332 434.205C394.842 434.205 395.326 434.073 395.783 433.81C396.24 433.546 396.571 433.203 396.776 432.781V430.83H395.501C393.509 430.83 392.513 431.413 392.513 432.579C392.513 433.089 392.683 433.487 393.023 433.775C393.363 434.062 393.799 434.205 394.332 434.205ZM402.48 425.935L402.524 426.989C403.221 426.169 404.162 425.759 405.345 425.759C406.675 425.759 407.581 426.269 408.061 427.288C408.377 426.831 408.788 426.462 409.291 426.181C409.801 425.9 410.402 425.759 411.093 425.759C413.179 425.759 414.24 426.863 414.275 429.072V435.444H412.649V429.169C412.649 428.489 412.494 427.983 412.183 427.649C411.873 427.309 411.351 427.139 410.619 427.139C410.015 427.139 409.514 427.32 409.116 427.684C408.717 428.041 408.486 428.525 408.421 429.134V435.444H406.787V429.213C406.787 427.83 406.11 427.139 404.756 427.139C403.69 427.139 402.96 427.593 402.568 428.501V435.444H400.942V425.935H402.48ZM422.607 435.444C422.513 435.257 422.437 434.923 422.378 434.443C421.623 435.228 420.72 435.62 419.671 435.62C418.734 435.62 417.963 435.357 417.36 434.829C416.762 434.296 416.463 433.622 416.463 432.808C416.463 431.818 416.838 431.05 417.588 430.505C418.344 429.954 419.405 429.679 420.77 429.679H422.352V428.932C422.352 428.363 422.182 427.912 421.842 427.578C421.502 427.238 421.001 427.068 420.339 427.068C419.759 427.068 419.273 427.215 418.88 427.508C418.488 427.801 418.291 428.155 418.291 428.571H416.657C416.657 428.097 416.824 427.64 417.158 427.2C417.498 426.755 417.955 426.403 418.529 426.146C419.109 425.888 419.745 425.759 420.436 425.759C421.532 425.759 422.39 426.034 423.011 426.585C423.632 427.13 423.955 427.883 423.978 428.844V433.221C423.978 434.094 424.089 434.788 424.312 435.304V435.444H422.607ZM419.909 434.205C420.418 434.205 420.902 434.073 421.359 433.81C421.816 433.546 422.147 433.203 422.352 432.781V430.83H421.078C419.085 430.83 418.089 431.413 418.089 432.579C418.089 433.089 418.259 433.487 418.599 433.775C418.939 434.062 419.375 434.205 419.909 434.205ZM426.14 430.61C426.14 429.128 426.483 427.95 427.168 427.077C427.854 426.198 428.762 425.759 429.893 425.759C431.053 425.759 431.958 426.169 432.609 426.989L432.688 425.935H434.173V435.216C434.173 436.446 433.807 437.416 433.075 438.125C432.348 438.834 431.37 439.189 430.139 439.189C429.454 439.189 428.783 439.042 428.126 438.749C427.47 438.456 426.969 438.055 426.623 437.545L427.467 436.569C428.165 437.431 429.017 437.861 430.025 437.861C430.816 437.861 431.431 437.639 431.871 437.193C432.316 436.748 432.539 436.121 432.539 435.313V434.495C431.888 435.245 431 435.62 429.875 435.62C428.762 435.62 427.86 435.172 427.168 434.276C426.483 433.379 426.14 432.157 426.14 430.61ZM427.775 430.795C427.775 431.867 427.995 432.711 428.434 433.326C428.873 433.936 429.489 434.24 430.28 434.24C431.305 434.24 432.058 433.775 432.539 432.843V428.501C432.04 427.593 431.293 427.139 430.297 427.139C429.506 427.139 428.888 427.446 428.443 428.062C427.998 428.677 427.775 429.588 427.775 430.795ZM440.581 435.62C439.291 435.62 438.243 435.198 437.434 434.355C436.625 433.505 436.221 432.371 436.221 430.953V430.654C436.221 429.711 436.4 428.87 436.757 428.132C437.121 427.388 437.624 426.808 438.269 426.392C438.919 425.97 439.623 425.759 440.378 425.759C441.615 425.759 442.576 426.166 443.261 426.981C443.947 427.795 444.29 428.961 444.29 430.479V431.155H437.847C437.871 432.093 438.143 432.852 438.665 433.432C439.192 434.006 439.86 434.293 440.668 434.293C441.243 434.293 441.729 434.176 442.127 433.942C442.526 433.707 442.874 433.397 443.173 433.01L444.166 433.783C443.37 435.008 442.174 435.62 440.581 435.62ZM440.378 427.095C439.722 427.095 439.171 427.335 438.726 427.816C438.281 428.29 438.005 428.958 437.9 429.819H442.664V429.696C442.617 428.87 442.394 428.232 441.996 427.78C441.597 427.323 441.058 427.095 440.378 427.095Z" fill="white"/>
<path d="M19.2514 227.177H17.5551V221.262H11.104V227.177H9.41646V214.38H11.104V219.882H17.5551V214.38H19.2514V227.177ZM25.9399 227.353C24.6508 227.353 23.602 226.931 22.7934 226.087C21.9848 225.238 21.5805 224.104 21.5805 222.686V222.387C21.5805 221.444 21.7592 220.603 22.1167 219.865C22.4799 219.12 22.9838 218.54 23.6284 218.124C24.2788 217.702 24.9819 217.491 25.7378 217.491C26.9741 217.491 27.935 217.899 28.6206 218.713C29.3061 219.528 29.6489 220.694 29.6489 222.211V222.888H23.2065C23.2299 223.825 23.5024 224.584 24.0239 225.164C24.5512 225.739 25.2192 226.026 26.0278 226.026C26.602 226.026 27.0883 225.908 27.4868 225.674C27.8852 225.44 28.2338 225.129 28.5327 224.742L29.5258 225.516C28.729 226.74 27.5336 227.353 25.9399 227.353ZM25.7378 218.827C25.0815 218.827 24.5307 219.068 24.0854 219.548C23.6401 220.023 23.3647 220.691 23.2592 221.552H28.0229V221.429C27.976 220.603 27.7534 219.964 27.3549 219.513C26.9565 219.056 26.4174 218.827 25.7378 218.827ZM37.4096 227.177C37.3159 226.99 37.2397 226.656 37.1811 226.175C36.4253 226.96 35.5229 227.353 34.4741 227.353C33.5366 227.353 32.7661 227.089 32.1626 226.562C31.5649 226.029 31.2661 225.355 31.2661 224.54C31.2661 223.55 31.6411 222.782 32.3911 222.238C33.1469 221.687 34.2075 221.411 35.5727 221.411H37.1547V220.664C37.1547 220.096 36.9848 219.645 36.645 219.311C36.3051 218.971 35.8042 218.801 35.142 218.801C34.562 218.801 34.0756 218.948 33.6831 219.24C33.2905 219.533 33.0942 219.888 33.0942 220.304H31.4594C31.4594 219.829 31.6264 219.372 31.9604 218.933C32.3003 218.488 32.7573 218.136 33.3315 217.878C33.9116 217.62 34.5473 217.491 35.2387 217.491C36.3344 217.491 37.1928 217.767 37.8139 218.318C38.435 218.863 38.7573 219.615 38.7807 220.576V224.953C38.7807 225.826 38.892 226.521 39.1147 227.036V227.177H37.4096ZM34.7114 225.938C35.2211 225.938 35.7045 225.806 36.1616 225.542C36.6186 225.279 36.9497 224.936 37.1547 224.514V222.563H35.8803C33.8881 222.563 32.892 223.146 32.892 224.312C32.892 224.822 33.062 225.22 33.4018 225.507C33.7417 225.794 34.1782 225.938 34.7114 225.938ZM43.0961 227.177H41.4702V213.677H43.0961V227.177ZM47.9126 215.365V217.667H49.6879V218.924H47.9126V224.822C47.9126 225.202 47.9917 225.49 48.1499 225.683C48.3081 225.87 48.5776 225.964 48.9585 225.964C49.146 225.964 49.4038 225.929 49.7319 225.859V227.177C49.3042 227.294 48.8881 227.353 48.4838 227.353C47.7573 227.353 47.2094 227.133 46.8403 226.694C46.4711 226.254 46.2866 225.63 46.2866 224.822V218.924H44.5551V217.667H46.2866V215.365H47.9126ZM53.2211 218.819C53.9419 217.934 54.8794 217.491 56.0336 217.491C58.0434 217.491 59.0571 218.625 59.0747 220.893V227.177H57.4487V220.884C57.4428 220.198 57.2846 219.692 56.9741 219.364C56.6694 219.035 56.1919 218.871 55.5415 218.871C55.0141 218.871 54.5512 219.012 54.1528 219.293C53.7544 219.574 53.4438 219.944 53.2211 220.401V227.177H51.5952V213.677H53.2211V218.819Z" fill="white"/>
<path d="M144.613 435.444V422.648H148.226C149.339 422.648 150.323 422.894 151.179 423.386C152.034 423.878 152.693 424.578 153.156 425.486C153.625 426.395 153.862 427.438 153.868 428.615V429.433C153.868 430.64 153.634 431.697 153.165 432.606C152.702 433.514 152.037 434.211 151.17 434.697C150.309 435.184 149.304 435.433 148.155 435.444H144.613ZM146.301 424.036V434.065H148.076C149.377 434.065 150.388 433.66 151.108 432.852C151.835 432.043 152.198 430.892 152.198 429.398V428.651C152.198 427.197 151.855 426.069 151.17 425.267C150.49 424.458 149.523 424.048 148.269 424.036H146.301ZM160.117 435.62C158.828 435.62 157.779 435.198 156.971 434.355C156.162 433.505 155.758 432.371 155.758 430.953V430.654C155.758 429.711 155.936 428.87 156.294 428.132C156.657 427.388 157.161 426.808 157.806 426.392C158.456 425.97 159.159 425.759 159.915 425.759C161.151 425.759 162.112 426.166 162.798 426.981C163.483 427.795 163.826 428.961 163.826 430.479V431.155H157.384C157.407 432.093 157.68 432.852 158.201 433.432C158.728 434.006 159.396 434.293 160.205 434.293C160.779 434.293 161.266 434.176 161.664 433.942C162.062 433.707 162.411 433.397 162.71 433.01L163.703 433.783C162.906 435.008 161.711 435.62 160.117 435.62ZM159.915 427.095C159.259 427.095 158.708 427.335 158.263 427.816C157.817 428.29 157.542 428.958 157.436 429.819H162.2V429.696C162.153 428.87 161.931 428.232 161.532 427.78C161.134 427.323 160.595 427.095 159.915 427.095ZM166.516 435.444V427.192H165.013V425.935H166.516V424.959C166.516 423.94 166.788 423.151 167.333 422.595C167.878 422.038 168.648 421.76 169.644 421.76C170.019 421.76 170.392 421.81 170.761 421.909L170.673 423.228C170.397 423.175 170.104 423.149 169.794 423.149C169.267 423.149 168.859 423.304 168.572 423.614C168.285 423.919 168.142 424.359 168.142 424.933V425.935H170.172V427.192H168.142V435.444H166.516ZM175.709 435.62C174.42 435.62 173.371 435.198 172.562 434.355C171.754 433.505 171.35 432.371 171.35 430.953V430.654C171.35 429.711 171.528 428.87 171.886 428.132C172.249 427.388 172.753 426.808 173.397 426.392C174.048 425.97 174.751 425.759 175.507 425.759C176.743 425.759 177.704 426.166 178.39 426.981C179.075 427.795 179.418 428.961 179.418 430.479V431.155H172.976C172.999 432.093 173.271 432.852 173.793 433.432C174.32 434.006 174.988 434.293 175.797 434.293C176.371 434.293 176.857 434.176 177.256 433.942C177.654 433.707 178.003 433.397 178.302 433.01L179.295 433.783C178.498 435.008 177.303 435.62 175.709 435.62ZM175.507 427.095C174.851 427.095 174.3 427.335 173.854 427.816C173.409 428.29 173.134 428.958 173.028 429.819H177.792V429.696C177.745 428.87 177.522 428.232 177.124 427.78C176.726 427.323 176.186 427.095 175.507 427.095ZM182.846 425.935L182.898 427.13C183.625 426.216 184.574 425.759 185.746 425.759C187.756 425.759 188.769 426.893 188.787 429.16V435.444H187.161V429.151C187.155 428.466 186.997 427.959 186.686 427.631C186.382 427.303 185.904 427.139 185.254 427.139C184.727 427.139 184.264 427.279 183.865 427.561C183.467 427.842 183.156 428.211 182.934 428.668V435.444H181.308V425.935H182.846ZM196.776 432.922C196.776 432.483 196.609 432.143 196.275 431.902C195.947 431.656 195.37 431.445 194.544 431.27C193.724 431.094 193.07 430.883 192.584 430.637C192.103 430.391 191.746 430.098 191.512 429.758C191.283 429.418 191.169 429.014 191.169 428.545C191.169 427.766 191.497 427.107 192.153 426.568C192.815 426.028 193.659 425.759 194.685 425.759C195.763 425.759 196.636 426.037 197.304 426.594C197.977 427.151 198.314 427.862 198.314 428.73H196.68C196.68 428.284 196.489 427.901 196.108 427.578C195.733 427.256 195.259 427.095 194.685 427.095C194.093 427.095 193.63 427.224 193.296 427.482C192.962 427.739 192.795 428.076 192.795 428.492C192.795 428.885 192.95 429.181 193.261 429.38C193.571 429.579 194.131 429.77 194.939 429.951C195.754 430.133 196.413 430.35 196.917 430.602C197.421 430.854 197.793 431.158 198.033 431.516C198.279 431.867 198.402 432.298 198.402 432.808C198.402 433.657 198.062 434.34 197.383 434.856C196.703 435.365 195.821 435.62 194.737 435.62C193.976 435.62 193.302 435.485 192.716 435.216C192.13 434.946 191.67 434.571 191.336 434.091C191.008 433.605 190.844 433.08 190.844 432.518H192.47C192.499 433.063 192.716 433.496 193.12 433.818C193.53 434.135 194.069 434.293 194.737 434.293C195.352 434.293 195.845 434.17 196.214 433.924C196.589 433.672 196.776 433.338 196.776 432.922ZM204.467 435.62C203.178 435.62 202.129 435.198 201.32 434.355C200.512 433.505 200.107 432.371 200.107 430.953V430.654C200.107 429.711 200.286 428.87 200.644 428.132C201.007 427.388 201.511 426.808 202.155 426.392C202.806 425.97 203.509 425.759 204.265 425.759C205.501 425.759 206.462 426.166 207.147 426.981C207.833 427.795 208.176 428.961 208.176 430.479V431.155H201.733C201.757 432.093 202.029 432.852 202.551 433.432C203.078 434.006 203.746 434.293 204.555 434.293C205.129 434.293 205.615 434.176 206.014 433.942C206.412 433.707 206.761 433.397 207.06 433.01L208.053 433.783C207.256 435.008 206.061 435.62 204.467 435.62ZM204.265 427.095C203.608 427.095 203.058 427.335 202.612 427.816C202.167 428.29 201.892 428.958 201.786 429.819H206.55V429.696C206.503 428.87 206.28 428.232 205.882 427.78C205.483 427.323 204.944 427.095 204.265 427.095Z" fill="white"/>
</svg>
